<svg version="1.2" xmlns="http://www.w3.org/2000/svg" viewBox="0 0 123 54" width="123" height="54">
	<title>cars-icon-svg</title>
	<style>
		.s0 { fill: #ffffff } 
	</style>
	<path id="Layer" fill-rule="evenodd" class="s0" d="m93.4 0.9h13c4 0 6.3 3.4 7.3 7.3l2.3 9.4 1.3-2.5c7-0.4 7.6 3.6 0.3 7.1l1.2 1.8c4.8 5 4.4 9.9 3.6 22.2v4q0 0.5-0.2 0.9-0.1 0.4-0.5 0.7-0.3 0.3-0.7 0.5-0.4 0.2-0.9 0.2h-9.7q-0.4 0-0.8-0.2-0.5-0.2-0.8-0.5-0.3-0.3-0.5-0.7-0.1-0.4-0.1-0.9v-1.7h-3.6v-2.1c0.1-3 0.3-5.5 0.4-7.8l5.7-0.1q0.3 0 0.5 0 0.3 0 0.5-0.1 0.3-0.1 0.5-0.2 0.2-0.1 0.4-0.2 0.2-0.1 0.4-0.3 0.2-0.1 0.3-0.3 0.2-0.1 0.3-0.3 0.1-0.2 0.2-0.4l0.9-2.3c0.7-1.7 0.2-2.6-1.8-2.3l-7.9 0.9q0-1.2-0.2-2.5-0.2-1.2-0.5-2.4-0.4-1.2-0.8-2.3-0.5-1.2-1.1-2.2 0.1-0.3 0.3-0.5 0.2-0.2 0.4-0.5 0.2-0.2 0.3-0.5 0.2-0.2 0.3-0.5 0.2-0.1 0.3-0.3 0.1-0.2 0.1-0.4 0.1-0.2 0.2-0.4 0.1-0.2 0.2-0.4h8.1l-2.3-9.8c-0.7-3-2.5-5.5-5.6-5.5h-9.7q-0.2-0.5-0.3-1-0.2-0.5-0.4-1-0.2-0.5-0.4-0.9-0.2-0.5-0.5-1zm-62.1 20.8c-7-3.5-6.2-7.5 0.8-7l1.6 2.9 3.2-10c1.3-4 3.4-7.6 7.5-7.6h36.6c4.1 0 6.5 3.5 7.5 7.5l2.5 9.8 1.4-2.6c7.2-0.5 7.8 3.7 0.2 7.3l1.3 1.9c5 5.2 4.5 10.3 3.7 23v4.2q0 0.5-0.2 0.9-0.1 0.5-0.5 0.8-0.3 0.3-0.7 0.5-0.5 0.2-0.9 0.2h-10.1q-0.5 0-0.9-0.2-0.5-0.2-0.8-0.5-0.3-0.3-0.5-0.8-0.2-0.4-0.2-0.9v-1.9h-42.7v1.9q0 0.5-0.2 0.9-0.2 0.5-0.5 0.8-0.3 0.3-0.8 0.5-0.4 0.2-0.9 0.2h-10q-0.4 0-0.9-0.2-0.4-0.2-0.7-0.5-0.4-0.3-0.6-0.8-0.1-0.4-0.1-0.9c0-0.1 0-5.6 0-5.8-0.8-9.7-1.9-18.5 5.9-23.6zm12.8 11.6l-8.9-1.1c-2.1-0.2-2.7 0.7-2 2.5l1 2.3q0.1 0.2 0.2 0.4 0.2 0.2 0.3 0.4 0.2 0.1 0.3 0.3 0.2 0.1 0.4 0.3 0.2 0.1 0.5 0.2 0.2 0.1 0.5 0.2 0.2 0 0.5 0.1 0.2 0 0.5 0l8 0.1c1.9 0 2.7-0.8 2.1-2.6q-0.1-0.6-0.4-1.1-0.3-0.5-0.8-0.9-0.5-0.4-1-0.7-0.5-0.3-1.2-0.4zm34.7 0q-0.6 0.1-1.2 0.4-0.5 0.3-1 0.7-0.4 0.4-0.7 0.9-0.4 0.5-0.5 1.1c-0.6 1.8 0.2 2.6 2.1 2.6l8-0.1q0.3 0 0.6 0 0.2-0.1 0.5-0.1 0.2-0.1 0.5-0.2 0.2-0.1 0.4-0.3 0.2-0.1 0.4-0.2 0.2-0.2 0.3-0.3 0.2-0.2 0.3-0.4 0.1-0.2 0.2-0.4l1-2.3c0.7-1.8 0.1-2.7-2-2.5l-8.9 1.1zm-41.7-13.5h50.4l-2.4-10.1c-0.7-3.1-2.7-5.7-5.8-5.7h-33.4c-3.2 0-4.8 2.7-5.8 5.7zm-5.3-17.9q-0.2 0.4-0.4 0.9-0.2 0.5-0.4 1-0.2 0.4-0.4 0.9h-12.3c-3 0-4.9 2.6-5.5 5.6l-2.4 9.8 9.7-0.1q0.1 0.2 0.2 0.4 0.1 0.2 0.1 0.3 0.1 0.2 0.2 0.4 0.1 0.1 0.2 0.3 0.2 0.4 0.4 0.7-0.7 1.3-1.3 2.6-0.6 1.3-1 2.7-0.4 1.3-0.6 2.7-0.2 1.5-0.3 2.9l-7.9-1c-2-0.2-2.5 0.6-1.9 2.4l0.9 2.2q0.1 0.2 0.3 0.4 0.1 0.2 0.3 0.4 0.1 0.2 0.3 0.3 0.2 0.2 0.3 0.3 0.3 0.1 0.5 0.2 0.2 0.1 0.5 0.2 0.2 0 0.5 0 0.2 0.1 0.5 0.1h5.7c0.1 2 0.3 4 0.4 6.1l0.1 0.8v3h-3.6v1.8q0 0.5-0.2 0.9-0.2 0.4-0.5 0.7-0.3 0.4-0.7 0.5-0.5 0.2-0.9 0.2h-9.7q-0.5 0-0.9-0.2-0.4-0.1-0.7-0.5-0.3-0.3-0.5-0.7-0.2-0.4-0.2-0.9v-4c-0.8-12.2-1.2-17.2 3.6-22.2l1.2-1.8c-7.3-3.5-6.7-7.5 0.2-7.1l1.4 2.5 2.3-9.4c1-3.9 3.3-7.3 7.3-7.3h15.7q-0.3 0.5-0.5 1z"/>
</svg>