<?xml version="1.0" standalone="no"?>
<!DOCTYPE svg PUBLIC "-//W3C//DTD SVG 20010904//EN"
 "http://www.w3.org/TR/2001/REC-SVG-20010904/DTD/svg10.dtd">
<svg version="1.0" xmlns="http://www.w3.org/2000/svg"
 width="1024.000000pt" height="1024.000000pt" viewBox="0 0 1024.000000 1024.000000"
 preserveAspectRatio="xMidYMid meet">

<g transform="translate(0.000000,1024.000000) scale(0.100000,-0.100000)"
fill="#000000" stroke="none">
<path d="M4445 7125 c-159 -41 -308 -92 -439 -147 l-99 -42 6 -197 7 -197 -88
-50 c-117 -68 -266 -175 -380 -273 l-95 -81 -181 65 -181 66 -46 -49 c-108
-113 -261 -322 -358 -487 l-43 -72 111 -146 c62 -80 114 -151 117 -159 3 -7
-15 -60 -39 -117 -24 -57 -54 -134 -66 -172 -21 -63 -27 -70 -79 -104 -32 -20
-82 -55 -113 -79 -52 -42 -79 -54 -79 -36 0 4 6 14 13 22 9 11 8 11 -7 0 -24
-19 -46 -70 -46 -109 0 -21 6 -30 23 -35 l22 -7 -22 -9 c-19 -8 -23 -17 -23
-50 0 -33 4 -42 25 -52 31 -14 32 -24 4 -31 -19 -5 -20 -10 -14 -49 3 -24 8
-50 11 -59 2 -9 -13 -38 -36 -65 -22 -27 -39 -53 -37 -58 4 -11 31 -19 135
-41 86 -18 403 -65 438 -65 24 0 24 0 8 38 -48 112 -63 234 -40 342 26 122 75
211 164 300 128 128 232 166 550 199 380 41 1364 70 1852 55 217 -7 304 -6
330 2 19 7 80 15 134 19 107 8 101 11 80 -40 -5 -11 2 -15 27 -16 19 0 30 -2
24 -5 -14 -5 -1663 -154 -1705 -154 -32 1 -33 2 -15 12 11 7 52 20 90 29 63
16 66 18 30 18 -22 0 -128 -8 -235 -19 -107 -11 -199 -20 -203 -20 -19 0 5
-18 32 -23 21 -5 55 -35 121 -109 141 -158 146 -175 12 -44 l-121 120 -53 -2
c-29 -1 -65 -5 -81 -8 l-27 -6 29 -36 c127 -162 166 -363 104 -543 -16 -46
-33 -92 -37 -101 -8 -17 54 -18 1224 -18 1169 0 1232 1 1227 18 -4 9 -16 44
-28 77 -27 73 -37 234 -20 315 6 30 22 78 35 107 l24 51 -21 6 c-59 16 -589
-3 -827 -29 -398 -44 -764 -129 -1133 -265 -261 -95 -258 -92 -82 -85 350 14
1292 79 1389 96 102 18 169 65 223 157 40 68 38 48 -4 -29 -48 -89 -93 -142
-148 -174 -49 -29 -46 -29 -495 -45 -282 -10 -487 -19 -998 -41 -145 -6 -265
-9 -268 -6 -9 8 74 61 254 161 566 315 914 433 1457 492 166 18 618 21 785 5
91 -8 98 -7 185 22 76 26 105 31 190 31 68 0 119 -6 160 -18 197 -59 343 -203
411 -406 26 -78 24 -233 -3 -317 -21 -62 -21 -63 -2 -63 33 0 291 98 313 119
12 11 38 27 58 35 39 17 40 18 59 108 9 45 9 63 -1 88 -9 21 -11 53 -6 104 l7
74 -73 -19 c-98 -26 -126 -24 -63 5 28 12 56 30 64 39 7 10 19 17 27 17 10 0
10 6 -2 35 -7 19 -14 64 -14 100 l0 67 -35 -4 c-39 -3 -49 15 -10 20 31 4 31
13 0 96 -27 71 -31 116 -15 147 12 22 4 24 -37 8 -40 -15 -163 -2 -163 17 0 8
52 82 116 165 l116 149 -63 103 c-103 168 -236 348 -342 461 l-42 45 -182 -66
-181 -65 -95 80 c-107 92 -276 213 -390 280 l-79 46 7 195 8 196 -104 44
c-191 81 -547 187 -600 179 -14 -2 -56 -54 -128 -158 l-106 -155 -75 5 c-110
7 -453 6 -540 -2 l-75 -7 -109 160 c-94 137 -113 159 -135 159 -14 -1 -84 -16
-156 -35z m980 -475 c424 -48 786 -177 1121 -399 289 -192 569 -481 740 -763
26 -43 45 -81 42 -83 -3 -3 -75 17 -161 45 -570 181 -806 240 -1132 281 -205
25 -487 23 -620 -6 -266 -56 -507 -157 -795 -330 -80 -49 -161 -95 -180 -103
-28 -13 -103 -17 -385 -23 -380 -7 -467 -16 -750 -73 -158 -32 -352 -78 -389
-92 -28 -11 -19 15 58 171 154 311 352 569 606 787 383 330 840 527 1360 587
107 12 379 13 485 1z m610 -985 c240 -31 540 -97 618 -136 46 -24 49 -52 7
-74 -60 -31 -459 -106 -640 -121 -30 -2 -165 -13 -300 -24 -135 -11 -330 -24
-435 -30 -252 -13 -846 -32 -852 -27 -2 3 21 8 52 12 43 5 75 19 143 61 48 30
91 59 97 65 17 17 25 9 25 -23 0 -66 8 -78 54 -78 22 0 58 5 78 10 l37 11 -6
52 c-3 29 -7 54 -9 56 -2 2 -33 3 -70 3 l-66 -1 98 46 c297 136 437 181 664
213 88 12 359 4 505 -15z m815 -261 c-74 -7 -182 -22 -239 -34 -105 -21 -326
-88 -318 -96 2 -2 64 9 138 25 167 37 280 55 305 48 13 -3 9 -5 -12 -6 -51 -2
-231 -37 -383 -76 -79 -20 -148 -34 -154 -32 -20 6 119 66 235 101 179 53 359
83 503 83 35 0 4 -5 -75 -13z m428 -11 c-10 -2 -28 -2 -40 0 -13 2 -5 4 17 4
22 1 32 -1 23 -4z m65 -10 c-7 -2 -21 -2 -30 0 -10 3 -4 5 12 5 17 0 24 -2 18
-5z m451 -191 c31 -93 32 -98 6 -105 -24 -6 -44 26 -59 93 -10 43 0 90 18 90
5 0 21 -35 35 -78z m76 -662 c-47 -93 -64 -103 -25 -14 30 68 54 108 61 101 3
-3 -13 -42 -36 -87z"/>
<path d="M5635 5674 c-266 -20 -425 -62 -690 -185 l-70 -32 33 -14 c24 -10 32
-19 32 -39 l0 -26 188 7 c103 5 343 8 535 7 320 -1 348 1 356 17 19 35 71 225
64 232 -18 18 -335 41 -448 33z"/>
<path d="M6091 5528 c-18 -62 -35 -119 -38 -127 -5 -12 16 -13 135 -7 217 10
469 59 479 93 7 19 -72 53 -196 84 -95 24 -317 69 -341 69 -3 0 -21 -51 -39
-112z"/>
<path d="M5781 5171 c-19 -3 -36 -12 -39 -20 -4 -11 3 -13 28 -8 18 4 58 7 90
7 42 0 59 4 64 15 4 12 -5 15 -52 14 -31 -1 -72 -4 -91 -8z"/>
<path d="M4468 5043 c6 -2 18 -2 25 0 6 3 1 5 -13 5 -14 0 -19 -2 -12 -5z"/>
<path d="M3308 5004 c-90 -21 -176 -70 -244 -138 -98 -98 -144 -210 -144 -350
0 -143 43 -249 140 -346 99 -99 227 -150 375 -150 148 0 261 47 366 150 199
196 199 501 0 701 -128 128 -311 178 -493 133z m255 -94 c139 -43 246 -155
283 -295 16 -58 18 -161 5 -170 -15 -9 -21 10 -26 78 -2 35 -13 88 -24 118
-19 50 -74 129 -90 129 -3 0 -45 -47 -91 -105 -130 -160 -126 -138 11 67 l58
86 -35 21 c-19 12 -39 21 -44 21 -5 0 -39 -52 -75 -115 -37 -64 -69 -114 -71
-112 -7 7 35 118 66 175 16 30 30 59 30 63 0 4 -26 13 -57 19 -60 13 -139 9
-185 -9 l-27 -10 49 -103 c95 -201 58 -169 -72 63 -12 21 -24 39 -28 39 -3 0
-21 -15 -39 -34 l-34 -35 65 -88 c35 -48 75 -104 88 -123 l23 -35 -42 40 c-23
22 -68 70 -99 107 l-56 68 -26 -25 c-27 -26 -50 -33 -50 -15 0 17 81 99 129
133 97 66 241 85 364 47z m-521 -335 c-3 -63 -2 -115 1 -115 3 0 43 9 89 19
103 24 199 36 178 22 -9 -5 -69 -23 -135 -40 -66 -16 -121 -35 -123 -41 -2 -5
-8 -7 -14 -4 -7 5 -9 -4 -6 -24 2 -17 1 -29 -3 -27 -13 9 -30 137 -24 183 5
39 35 142 41 142 1 0 -1 -52 -4 -115z m624 -76 c32 -6 70 -17 84 -25 l25 -13
-27 -1 c-38 0 -171 29 -182 40 -13 13 25 13 100 -1z m-421 -121 c-61 -38 -154
-82 -161 -75 -9 9 175 107 201 107 6 0 -12 -15 -40 -32z m585 2 c0 -25 -18
-36 -26 -16 -8 21 3 49 16 41 5 -3 10 -15 10 -25z m-50 -80 c0 -11 -4 -20 -9
-20 -14 0 -23 18 -16 30 10 17 25 11 25 -10z m-515 -117 c42 -22 66 -27 145
-31 81 -4 106 -1 168 20 86 29 89 15 7 -27 -55 -28 -66 -30 -169 -30 -108 0
-113 1 -175 36 -68 37 -108 79 -96 99 5 8 17 3 38 -15 18 -14 55 -37 82 -52z"/>
<path d="M6800 5004 c-145 -38 -268 -140 -336 -278 -35 -72 -39 -87 -42 -176
-5 -111 10 -178 61 -273 59 -111 184 -209 311 -243 70 -19 220 -18 287 2 314
92 460 476 285 748 -45 69 -130 147 -196 179 -116 56 -255 72 -370 41z m310
-110 c64 -30 155 -108 179 -152 10 -19 9 -22 -8 -22 -11 0 -28 12 -39 27 l-20
28 -43 -50 c-24 -28 -70 -77 -102 -110 l-59 -60 58 85 c32 47 70 101 86 121
15 20 28 41 28 45 0 5 -16 20 -36 33 -30 21 -37 22 -45 10 -5 -8 -40 -62 -76
-121 -37 -59 -69 -106 -70 -104 -7 6 29 94 67 164 22 41 38 77 35 82 -10 17
-109 32 -167 26 -103 -10 -104 -11 -53 -119 45 -94 67 -161 47 -142 -5 6 -38
61 -72 123 -34 61 -64 112 -68 112 -16 0 -72 -41 -72 -52 0 -7 28 -56 63 -108
35 -52 72 -108 83 -125 36 -55 -6 -14 -86 86 -45 54 -84 99 -89 99 -13 0 -71
-87 -87 -132 -9 -24 -19 -76 -22 -117 -8 -81 -29 -109 -34 -44 -16 192 112
375 307 440 25 8 76 12 135 10 82 -2 104 -7 160 -33z m244 -384 c0 -52 -6
-106 -12 -120 l-12 -25 3 27 c5 32 5 31 -163 73 -181 46 -171 60 17 25 59 -12
115 -23 123 -25 13 -4 15 9 14 78 0 45 -3 98 -7 117 -7 34 -6 34 15 -10 19
-37 22 -62 22 -140z m-560 -10 c-12 -12 -137 -40 -179 -40 -24 1 -27 2 -13 10
44 26 214 52 192 30z m430 -158 c38 -20 64 -38 58 -40 -13 -4 -147 61 -182 88
l-25 20 40 -16 c22 -9 71 -32 109 -52z m-659 48 c3 -5 2 -17 -3 -27 -9 -15
-11 -14 -20 4 -15 27 7 49 23 23z m37 -102 c-15 -15 -26 -4 -18 18 5 13 9 15
18 6 9 -9 9 -15 0 -24z"/>
<path d="M2099 3691 c-24 -19 -24 -22 -24 -193 l0 -173 38 -3 37 -3 0 80 0 81
200 0 200 0 0 -81 0 -80 38 3 37 3 3 140 c3 161 -1 198 -29 226 -18 18 -35 19
-248 19 -210 0 -231 -2 -252 -19z m449 -93 l3 -38 -200 0 -201 0 0 33 c0 19 3
37 7 41 4 3 93 5 197 4 l191 -3 3 -37z"/>
<path d="M2710 3536 l0 -175 26 -20 c25 -20 39 -21 240 -21 135 0 222 4 237
11 41 18 47 49 47 219 l0 160 -40 0 -40 0 0 -155 0 -155 -197 2 -198 3 -3 153
-3 152 -34 0 -35 0 0 -174z"/>
<path d="M3340 3675 l0 -35 120 0 120 0 0 -161 0 -160 38 3 37 3 3 158 3 157
114 0 115 0 0 35 0 35 -275 0 -275 0 0 -35z"/>
<path d="M3999 3691 c-23 -19 -24 -24 -24 -171 l0 -152 28 -24 c28 -24 30 -24
247 -24 217 0 219 0 247 24 27 23 28 28 31 140 5 135 -2 180 -29 207 -18 18
-35 19 -248 19 -210 0 -231 -2 -252 -19z m446 -171 l0 -115 -195 0 -195 0 -3
104 c-1 58 0 111 2 118 4 11 45 13 198 11 l193 -3 0 -115z"/>
<path d="M4842 3518 l3 -193 38 -3 37 -3 0 81 0 81 151 -3 151 -3 27 -75 27
-75 43 -3 c48 -4 48 -8 10 93 -23 62 -23 65 -1 65 71 0 97 185 32 220 -11 6
-123 10 -270 10 l-250 0 2 -192z m473 82 l0 -35 -197 -3 -198 -2 0 40 0 40
198 -2 197 -3 0 -35z"/>
<path d="M5502 3687 c-21 -22 -22 -33 -22 -171 0 -143 1 -148 25 -171 l24 -25
251 0 250 0 0 40 0 40 -235 0 -235 0 0 40 0 40 215 0 215 0 0 40 0 40 -216 0
-215 0 3 38 3 37 233 3 232 2 0 35 0 35 -253 0 c-252 0 -254 0 -275 -23z"/>
<path d="M6110 3515 l0 -195 40 0 40 0 0 80 0 80 209 0 c196 0 210 1 235 21
24 19 26 26 26 95 0 118 12 114 -295 114 l-255 0 0 -195z m476 100 c14 -54 11
-55 -201 -55 l-195 0 0 40 0 40 195 0 195 0 6 -25z"/>
<path d="M6769 3691 c-24 -19 -24 -22 -24 -193 l0 -173 38 -3 37 -3 0 80 0 81
200 0 200 0 0 -81 0 -80 38 3 37 3 3 140 c3 161 -1 198 -29 226 -18 18 -35 19
-248 19 -210 0 -231 -2 -252 -19z m449 -93 l3 -38 -200 0 -201 0 0 33 c0 19 3
37 7 41 4 3 93 5 197 4 l191 -3 3 -37z"/>
<path d="M7380 3514 l0 -195 38 3 37 3 3 193 2 192 -40 0 -40 0 0 -196z"/>
<path d="M7540 3515 l0 -195 35 0 35 0 0 80 0 80 153 0 153 0 25 -77 25 -78
42 -3 c23 -2 42 1 42 6 0 5 -11 40 -25 76 -14 37 -25 68 -25 70 0 2 13 6 30 9
39 8 60 51 60 120 0 40 -6 61 -21 81 l-20 26 -255 0 -254 0 0 -195z m468 83
l3 -38 -200 0 -201 0 0 40 0 40 198 -2 197 -3 3 -37z"/>
</g>
</svg>
