<svg version="1.2" xmlns="http://www.w3.org/2000/svg" viewBox="0 0 1024 1024" width="1024" height="1024">
	<title>Diseño-sin-título-svg</title>
	<style>
		.s0 { fill: #ffffff } 
	</style>
	<g id="Layer">
		<path id="Layer" fill-rule="evenodd" class="s0" d="m460.1 308c2.2 0 4.1 2.2 13.5 15.9l10.9 16 7.5-0.7c8.7-0.8 43-0.9 54-0.2l7.5 0.5 10.6-15.5c7.2-10.4 11.4-15.6 12.8-15.8 5.3-0.8 40.9 9.8 60 17.9l10.4 4.4-0.8 19.6-0.7 19.5 7.9 4.6c11.4 6.7 28.3 18.8 39 28l9.5 8 18.1-6.5 18.2-6.6 4.2 4.5c10.6 11.3 23.9 29.3 34.2 46.1l6.3 10.3-11.6 14.9c-6.4 8.3-11.6 15.7-11.6 16.5 0 1.9 12.3 3.2 16.3 1.7 4.1-1.6 4.9-1.4 3.7 0.8-1.6 3.1-1.2 7.6 1.5 14.7 3.1 8.3 3.1 9.2 0 9.6-3.9 0.5-2.9 2.3 1 2l3.5-0.4v6.7c0 3.6 0.7 8.1 1.4 10 1.2 2.9 1.2 3.5 0.2 3.5-0.8 0-2 0.7-2.7 1.7-0.8 0.9-3.6 2.7-6.4 3.9-6.3 2.9-3.5 3.1 6.3 0.5l7.3-1.9-0.7 7.4c-0.5 5.1-0.3 8.3 0.6 10.4 1 2.5 1 4.3 0.1 8.8-1.9 9-2 9.1-5.9 10.8-2 0.8-4.6 2.4-5.8 3.5-2.2 2.1-28 11.9-31.3 11.9-1.9 0-1.9-0.1 0.2-6.3 2.7-8.4 2.9-23.9 0.3-31.7-6.8-20.3-21.4-34.7-41.1-40.6-4.1-1.2-9.2-1.8-16-1.8-8.5 0-11.4 0.5-19 3.1-8.7 2.9-9.4 3-18.5 2.2-16.7-1.6-61.9-1.3-78.5 0.5-54.3 5.9-89.1 17.7-145.7 49.2-18 10-26.3 15.3-25.4 16.1 0.3 0.3 12.3 0 26.8-0.6 51.1-2.2 71.6-3.1 99.8-4.1 44.9-1.6 44.6-1.6 49.5-4.5 5.5-3.2 10-8.5 14.8-17.4 4.2-7.7 4.4-9.7 0.4-2.9-5.4 9.2-12.1 13.9-22.3 15.7-9.7 1.7-103.9 8.2-138.9 9.6-17.6 0.7-17.9 1 8.2-8.5 36.9-13.6 73.5-22.1 113.3-26.5 23.8-2.6 76.8-4.5 82.7-2.9l2.1 0.6-2.4 5.1c-1.3 2.9-2.9 7.7-3.5 10.7-1.7 8.1-0.7 24.2 2 31.5 1.2 3.3 2.4 6.8 2.8 7.7 0.5 1.7-5.8 1.8-122.7 1.8-117 0-123.2-0.1-122.4-1.8 0.4-0.9 2.1-5.5 3.7-10.1 6.2-18 2.3-38.1-10.4-54.3l-2.9-3.6 2.7-0.6c1.6-0.3 5.2-0.7 8.1-0.8l5.3-0.2 12.1 12c13.4 13.1 12.9 11.4-1.2-4.4-6.6-7.4-10-10.4-12.1-10.9-2.7-0.5-5.1-2.3-3.2-2.3 0.4 0 9.6-0.9 20.3-2 10.7-1.1 21.3-1.9 23.5-1.9 3.6 0 3.3 0.2-3 1.8-3.8 0.9-7.9 2.2-9 2.9-1.8 1-1.7 1.1 1.5 1.2 4.2 0 169.1-14.9 170.5-15.4 0.6-0.3-0.5-0.5-2.4-0.5-2.5-0.1-3.2-0.5-2.7-1.6 2.1-5.1 2.7-4.8-8-4-5.4 0.4-11.5 1.2-13.4 1.9-2.6 0.8-11.3 0.9-33 0.2-48.8-1.5-147.2 1.4-185.2 5.5-31.8 3.3-42.2 7.1-55 19.9-8.9 8.9-13.8 17.8-16.4 30-2.3 10.8-0.8 23 4 34.2 1.6 3.8 1.6 3.8-0.8 3.8-3.5 0-35.2-4.7-43.8-6.5-10.4-2.2-13.1-3-13.5-4.1-0.2-0.5 1.5-3.1 3.7-5.8 2.3-2.7 3.8-5.6 3.6-6.5-0.3-0.9-0.8-3.5-1.1-5.9-0.6-3.9-0.5-4.4 1.4-4.9 2.8-0.7 2.7-1.7-0.4-3.1-2.1-1-2.5-1.9-2.5-5.2 0-3.3 0.4-4.2 2.3-5l2.2-0.9-2.2-0.7c-1.7-0.5-2.3-1.4-2.3-3.5 0-3.9 2.2-9 4.6-10.9 1.5-1.1 1.6-1.1 0.7 0-0.7 0.8-1.3 1.8-1.3 2.2 0 1.8 2.7 0.6 7.9-3.6 3.1-2.4 8.1-5.9 11.3-7.9 5.2-3.4 5.8-4.1 7.9-10.4 1.2-3.8 4.2-11.5 6.6-17.2 2.4-5.7 4.2-11 3.9-11.7-0.3-0.8-5.5-7.9-11.7-15.9l-11.1-14.6 4.3-7.2c9.7-16.5 25-37.4 35.8-48.7l4.6-4.9 18.1 6.6 18.1 6.5 9.5-8.1c11.4-9.8 26.3-20.5 38-27.3l8.8-5-0.7-19.7-0.6-19.7 9.9-4.2c13.1-5.5 28-10.6 43.9-14.7 7.2-1.9 14.2-3.4 15.6-3.5zm33.9 51.1c-52 6-97.7 25.7-136 58.7-25.4 21.8-45.2 47.6-60.6 78.7-7.7 15.6-8.6 18.2-5.8 17.1 3.7-1.4 23.1-6 38.9-9.2 28.3-5.7 37-6.6 75-7.3 28.2-0.6 35.7-1 38.5-2.3 1.9-0.8 10-5.4 18-10.3 28.8-17.3 52.9-27.4 79.5-33 13.3-2.9 41.5-3.1 62-0.6 32.6 4.1 56.2 10 113.2 28.1 8.6 2.8 15.8 4.8 16.1 4.5 0.3-0.2-1.6-4-4.2-8.3-17.1-28.2-45.1-57.1-74-76.3-33.5-22.2-69.7-35.1-112.1-39.9-10.6-1.2-37.8-1.1-48.5 0.1zm59 96.9c-22.7 3.2-36.7 7.7-66.4 21.3l-9.8 4.6 6.6-0.1c3.7 0 6.8 0.1 7 0.3 0.2 0.2 0.6 2.7 0.9 5.6l0.6 5.2-3.7 1.1c-2 0.5-5.6 1-7.8 1-4.6 0-5.4-1.2-5.4-7.8 0-3.2-0.8-4-2.5-2.3-0.6 0.6-4.9 3.5-9.7 6.5-6.8 4.2-10 5.6-14.3 6.1-3.1 0.4-5.4 0.9-5.2 1.2 0.6 0.5 60-1.4 85.2-2.7 10.5-0.6 30-1.9 43.5-3 13.5-1.1 27-2.2 30-2.4 18.1-1.5 58-9 64-12.1 4.2-2.2 3.9-5-0.7-7.4-7.8-3.9-37.8-10.5-61.8-13.6-14.6-1.9-41.7-2.7-50.5-1.5zm139.5 26.3c-14.4 0-32.4 3-50.3 8.3-11.6 3.5-25.5 9.5-23.5 10.1 0.6 0.2 7.5-1.2 15.4-3.2 15.2-3.9 33.2-7.4 38.3-7.6q3.2-0.2 1.2-0.6c-2.5-0.7-13.8 1.1-30.5 4.8-7.4 1.6-13.6 2.7-13.8 2.5-0.8-0.8 21.3-7.5 31.8-9.6 5.7-1.2 16.5-2.7 23.9-3.4 7.9-0.8 11-1.3 7.5-1.3zm33 2c-2.2 0-3 0.2-1.7 0.4 1.2 0.2 3 0.2 4 0 0.9-0.3-0.1-0.5-2.3-0.4zm7 0.9c-1.6 0-2.2 0.2-1.2 0.5 0.9 0.2 2.3 0.2 3 0 0.6-0.3-0.1-0.5-1.8-0.5zm43.4 11.8c-1.8 0-2.8 4.7-1.8 9 1.5 6.7 3.5 9.9 5.9 9.3 2.6-0.7 2.5-1.2-0.6-10.5-1.4-4.3-3-7.8-3.5-7.8zm14.7 65.3c-0.7-0.7-3.1 3.3-6.1 10.1-3.9 8.9-2.2 7.9 2.5-1.4 2.3-4.5 3.9-8.4 3.6-8.7zm-182.3-102.4c0.7 0.7-4.5 19.7-6.4 23.2-0.8 1.6-3.6 1.8-35.6 1.7-19.2-0.1-43.2 0.2-53.5 0.7l-18.8 0.7v-2.6c0-2-0.8-2.9-3.2-3.9l-3.3-1.4 7-3.2c26.5-12.3 42.4-16.5 69-18.5 11.3-0.8 43 1.5 44.8 3.3zm4.7 0.1c2.4 0 24.6 4.5 34.1 6.9 12.4 3.1 20.3 6.5 19.6 8.4-1 3.4-26.2 8.3-47.9 9.3-11.9 0.6-14 0.5-13.5-0.7 0.3-0.8 2-6.5 3.8-12.7 1.8-6.1 3.6-11.2 3.9-11.2zm-25.8 46.1c4.7-0.1 5.6 0.2 5.2 1.4-0.5 1.1-2.2 1.5-6.4 1.5-3.2 0-7.2 0.3-9 0.7-2.5 0.5-3.2 0.3-2.8-0.8 0.3-0.8 2-1.7 3.9-2 1.9-0.4 6-0.7 9.1-0.8zm-139.2 13.1c1.4 0 1.9 0.2 1.3 0.5-0.7 0.2-1.9 0.2-2.5 0-0.7-0.3-0.2-0.5 1.2-0.5zm-67.9 17.7c19.9 20 19.9 50.5 0 70.1-10.5 10.3-21.8 15-36.6 15-14.8 0-27.6-5.1-37.5-15-9.7-9.7-14-20.3-14-34.6 0-14 4.6-25.2 14.4-35 6.8-6.8 15.4-11.7 24.4-13.8 18.2-4.5 36.5 0.5 49.3 13.3zm-60.2 0.8c-4.8 3.4-12.9 11.6-12.9 13.3 0 1.8 2.3 1.1 5-1.5l2.6-2.5 5.6 6.8c3.1 3.7 7.6 8.5 9.9 10.7l4.2 4-2.3-3.5c-1.3-1.9-5.3-7.5-8.8-12.3l-6.5-8.8 3.4-3.5c1.8-1.9 3.6-3.4 3.9-3.4 0.4 0 1.6 1.8 2.8 3.9 13 23.2 16.7 26.4 7.2 6.3l-4.9-10.3 2.7-1c4.6-1.8 12.5-2.2 18.5-0.9 3.1 0.6 5.7 1.5 5.7 1.9 0 0.4-1.4 3.3-3 6.3-3.1 5.7-7.3 16.8-6.6 17.5 0.2 0.2 3.4-4.8 7.1-11.2 3.6-6.3 7-11.5 7.5-11.5 0.5 0 2.5 0.9 4.4 2.1l3.5 2.1-5.8 8.6c-13.7 20.5-14.1 22.7-1.1 6.7 4.6-5.8 8.8-10.5 9.1-10.5 1.6 0 7.1 7.9 9 12.9 1.1 3 2.2 8.3 2.4 11.8 0.5 6.8 1.1 8.7 2.6 7.8 1.3-0.9 1.1-11.2-0.5-17-3.7-14-14.4-25.2-28.3-29.5-12.3-3.8-26.7-1.9-36.4 4.7zm-15.3 17.3c-0.6 0-3.6 10.3-4.1 14.2-0.6 4.6 1.1 17.4 2.4 18.3 0.4 0.2 0.5-1 0.3-2.7-0.3-2-0.1-2.9 0.6-2.4 0.6 0.3 1.2 0.1 1.4-0.4 0.2-0.6 5.7-2.5 12.3-4.1 6.6-1.7 12.6-3.5 13.5-4 2.1-1.4-7.5-0.2-17.8 2.2-4.6 1-8.6 1.9-8.9 1.9-0.3 0-0.4-5.2-0.1-11.5 0.3-6.3 0.5-11.5 0.4-11.5zm52 19c1.1 1.1 14.4 4 18.2 4l2.7-0.1-2.5-1.3c-1.4-0.8-5.2-1.9-8.4-2.5-7.5-1.4-11.3-1.4-10-0.1zm-28.1 9c-2.6 0-21 9.8-20.1 10.7 0.7 0.7 10-3.7 16.1-7.5 2.8-1.7 4.6-3.2 4-3.2zm53.5 0.5c-1.3-0.8-2.4 2-1.6 4.1 0.8 2 2.6 0.9 2.6-1.6 0-1-0.5-2.2-1-2.5zm-6.5 9.5c-0.7 1.2 0.2 3 1.6 3 0.5 0 0.9-0.9 0.9-2 0-2.1-1.5-2.7-2.5-1zm-57.2 7.5c-2.1-1.8-3.3-2.3-3.8-1.5-1.2 2 2.8 6.2 9.6 9.9 6.2 3.5 6.7 3.6 17.5 3.6 10.3 0 11.4-0.2 16.9-3 8.2-4.2 7.9-5.6-0.7-2.7-6.2 2.1-8.7 2.4-16.8 2-7.9-0.4-10.3-0.9-14.5-3.1-2.7-1.5-6.4-3.8-8.2-5.2zm398.7-72.8c6.6 3.2 15.1 11 19.6 17.9 17.5 27.2 2.9 65.6-28.5 74.8-6.7 2-21.7 2.1-28.7 0.2-12.7-3.4-25.2-13.2-31.1-24.3-5.1-9.5-6.6-16.2-6.1-27.3 0.3-8.9 0.7-10.4 4.2-17.6 6.8-13.8 19.1-24 33.6-27.8 11.5-3.1 25.4-1.5 37 4.1zm-22 3.6c-5.9-0.2-11 0.2-13.5 1-19.5 6.5-32.3 24.8-30.7 44 0.5 6.5 2.6 3.7 3.4-4.4 0.3-4.1 1.3-9.3 2.2-11.7 1.6-4.5 7.4-13.2 8.7-13.2 0.5 0 4.4 4.5 8.9 9.9 8 10 12.2 14.1 8.6 8.6-1.1-1.7-4.8-7.3-8.3-12.5-3.5-5.2-6.3-10.1-6.3-10.8 0-1.1 5.6-5.2 7.2-5.2 0.4 0 3.4 5.1 6.8 11.2 3.4 6.2 6.7 11.7 7.2 12.3 2 1.9-0.2-4.8-4.7-14.2-5.1-10.8-5-10.9 5.3-11.9 5.8-0.6 15.7 0.9 16.7 2.6 0.3 0.5-1.3 4.1-3.5 8.2-3.8 7-7.4 15.8-6.7 16.4 0.1 0.2 3.3-4.5 7-10.4 3.6-5.9 7.1-11.3 7.6-12.1 0.8-1.2 1.5-1.1 4.5 1 2 1.3 3.6 2.8 3.6 3.3 0 0.4-1.3 2.5-2.8 4.5-1.6 2-5.4 7.4-8.6 12.1l-5.8 8.5 5.9-6c3.2-3.3 7.8-8.2 10.2-11l4.3-5 2 2.8c1.1 1.5 2.8 2.7 3.9 2.7 1.7 0 1.8-0.3 0.8-2.2-2.4-4.4-11.5-12.2-17.9-15.2-5.6-2.6-7.8-3.1-16-3.3zm38.2 27.7c-2.1-4.4-2.2-4.4-1.5-1 0.4 1.9 0.7 7.2 0.7 11.7 0.1 6.9-0.1 8.2-1.4 7.8-0.8-0.2-6.4-1.3-12.3-2.5-18.8-3.5-19.8-2.1-1.7 2.5 16.8 4.2 16.8 4.1 16.3 7.3l-0.3 2.7 1.2-2.5c0.6-1.4 1.2-6.8 1.2-12 0-7.8-0.3-10.3-2.2-14zm-73 18c-1.4 0.8-1.1 0.9 1.3 1 4.2 0 16.7-2.8 17.9-4 2.2-2.2-14.8 0.4-19.2 3zm51.3 7.6l-4-1.6 2.5 2c3.5 2.7 16.9 9.2 18.2 8.8 0.6-0.2-2-2-5.8-4-3.8-2-8.7-4.3-10.9-5.2zm-57.3 2.7c0.9 1.8 1.1 1.9 2 0.4 0.5-1 0.6-2.2 0.3-2.7-1.6-2.6-3.8-0.4-2.3 2.3zm6 5.5c-0.9-0.9-1.3-0.7-1.8 0.6-0.8 2.2 0.3 3.3 1.8 1.8 0.9-0.9 0.9-1.5 0-2.4zm-425.1 60.2c21.3 0 23 0.1 24.8 1.9 2.8 2.8 3.2 6.5 2.9 22.6l-0.3 14-3.7 0.3-3.8 0.3v-16.1h-40v16.1l-3.7-0.3-3.8-0.3v-17.3c0-17.1 0-17.4 2.4-19.3 2.1-1.7 4.2-1.9 25.2-1.9zm19.4 7.5l-19.1-0.3c-10.4-0.1-19.3 0.1-19.7 0.4-0.4 0.4-0.7 2.2-0.7 4.1v3.3h40.1l-0.3-3.8zm16.5-7.5h6.9l0.3 15.2 0.3 15.3 19.8 0.3 19.7 0.2v-31h8v16c0 17-0.6 20.1-4.7 21.9-1.5 0.7-10.2 1.1-23.7 1.1-20.1 0-21.5-0.1-24-2.1l-2.6-2zm63 0h55v7h-22.9l-0.3 15.7-0.3 15.8-3.7 0.3-3.8 0.3v-32.1h-24zm91.1 0c21.3 0 23 0.1 24.8 1.9 2.7 2.7 3.4 7.2 2.9 20.7-0.3 11.2-0.4 11.7-3.1 14-2.8 2.4-3 2.4-24.7 2.4-21.7 0-21.9 0-24.7-2.4l-2.8-2.4v-15.2c0-14.7 0.1-15.2 2.4-17.1 2.1-1.7 4.2-1.9 25.2-1.9zm19.4 7.5l-19.3-0.3c-15.3-0.2-19.4 0-19.8 1.1-0.2 0.7-0.3 6-0.2 11.8l0.3 10.4h39zm39.5-7.5h25c14.7 0 25.9 0.4 27 1 6.5 3.5 3.9 22-3.2 22-2.2 0-2.2 0.3 0.1 6.5 3.8 10.1 3.8 9.7-1 9.3l-4.3-0.3-5.4-15-30.2-0.6v16.2l-3.7-0.3-3.8-0.3-0.3-19.3zm47.5 7.5l-19.7-0.3-19.8-0.2v8l19.8-0.2 19.7-0.3zm46.2-7.5h25.3v7l-23.2 0.2-23.3 0.3-0.3 3.7-0.3 3.8h43.1v8h-43v8h47v8h-50.1l-2.4-2.5c-2.4-2.3-2.5-2.8-2.5-17.1 0-13.8 0.1-14.9 2.2-17.1 2.1-2.3 2.3-2.3 27.5-2.3zm33.3 0h25.5c30.7 0 29.5-0.4 29.5 11.4 0 6.9-0.2 7.6-2.6 9.5-2.5 2-3.9 2.1-23.5 2.1h-20.9v16h-8zm47 7h-39v8h19.5c21.2 0 21.5-0.1 20.1-5.5zm44.1-7c21.3 0 23 0.1 24.8 1.9 2.8 2.8 3.2 6.5 2.9 22.6l-0.3 14-3.7 0.3-3.8 0.3v-16.1h-40v16.1l-3.7-0.3-3.8-0.3v-17.3c0-17.1 0-17.4 2.4-19.3 2.1-1.7 4.2-1.9 25.2-1.9zm19.4 7.5l-19.1-0.3c-10.4-0.1-19.3 0.1-19.7 0.4-0.4 0.4-0.7 2.2-0.7 4.1v3.3h40.1l-0.3-3.8zm16.5-7.5h8l-0.2 19.2-0.3 19.3-3.7 0.3-3.8 0.3zm16 0h50.9l2 2.6c1.5 2 2.1 4.1 2.1 8.1 0 6.9-2.1 11.2-6 12-1.7 0.3-3 0.7-3 0.9 0 0.2 1.1 3.3 2.5 7 1.4 3.6 2.5 7.1 2.5 7.6 0 0.5-1.9 0.8-4.2 0.6l-4.2-0.3-2.5-7.8-2.5-7.7h-30.6v16h-7zm46.5 7.5l-19.7-0.3-19.8-0.2v8h40.1l-0.3-3.8z"/>
	</g>
</svg>