<svg version="1.2" xmlns="http://www.w3.org/2000/svg" viewBox="0 0 123 101" width="123" height="101">
	<title>service-tools-icon-svg</title>
	<style>
		.s0 { fill: #ffffff } 
	</style>
	<g id="Layer">
		<path id="Layer" fill-rule="evenodd" class="s0" d="m97.1 20.8c-0.2-0.3-0.5-0.4-0.7-0.5q-0.3-0.2-0.8-0.2-0.5 0-0.8 0.2c-0.2 0.1-0.5 0.2-0.7 0.5h-0.1l-6 6.1c-1.2 1.1-3.1 1.3-4.4 0.3-0.7-0.4-1.4-0.8-2.2-1.2q-1.3-0.7-2.4-1.3c-0.8-0.4-1.7-0.7-2.5-1-0.8-0.3-1.7-0.6-2.7-1-1.4-0.4-2.3-1.8-2.3-3.2v-9.3c0-0.3-0.1-0.6-0.2-0.8-0.1-0.3-0.3-0.5-0.5-0.7q-0.3-0.3-0.6-0.5c-0.2-0.1-0.5-0.1-0.9-0.1h-11.6q-0.5 0-0.8 0.1c-0.3 0.1-0.5 0.2-0.8 0.5q-0.3 0.3-0.4 0.7c-0.1 0.2-0.2 0.5-0.2 0.8v8.5c0 1.7-1.2 3.1-2.8 3.5q-1.4 0.3-2.5 0.6c-0.9 0.3-1.7 0.5-2.6 0.9-0.8 0.3-1.6 0.6-2.4 1-0.9 0.4-1.6 0.8-2.4 1.2-1.4 0.8-3 0.5-4-0.6l-6.7-6.6c-0.1-0.1-0.1-0.1-0.1-0.1q-0.3-0.4-0.6-0.5c-0.2-0.1-0.5-0.1-0.8-0.1q-0.5 0-0.8 0.1c-0.3 0.1-0.5 0.3-0.7 0.6l-8.2 8.2c-0.2 0.2-0.4 0.4-0.5 0.7q-0.2 0.3-0.2 0.8 0 0.5 0.2 0.8c0.1 0.2 0.3 0.5 0.5 0.7v0.1l6 6c1.2 1.2 1.4 3.1 0.4 4.4-0.4 0.7-0.9 1.4-1.3 2.2q-0.6 1.3-1.2 2.4c-0.4 0.8-0.8 1.7-1.1 2.5-0.3 0.8-0.6 1.6-0.9 2.7-0.5 1.4-1.8 2.3-3.3 2.3h-9.2c-0.4 0-0.7 0.1-0.9 0.2q-0.3 0.2-0.6 0.4-0.4 0.3-0.5 0.6c-0.1 0.3-0.1 0.6-0.1 0.9v0.9q-3.6 1.1-6.8 3.2v-4.2c0-1.2 0.2-2.4 0.6-3.5 0.5-1.1 1.1-2 2-2.9 0.9-0.9 1.9-1.6 3-2q1.6-0.7 3.4-0.7h6.9c0-0.1 0.1-0.3 0.2-0.5q0.6-1.4 1.2-2.9c0.5-1 0.9-2 1.4-2.8l0.2-0.3-4.1-4.2c-0.9-0.9-1.6-1.8-2-3-0.5-1.1-0.7-2.3-0.7-3.4 0-1.3 0.2-2.4 0.7-3.5 0.5-1.1 1.1-2.1 2-3l8.1-8.2q1.3-1.3 2.9-2c1.1-0.5 2.2-0.7 3.5-0.7 1.2 0 2.4 0.3 3.5 0.7 1 0.5 2 1.1 2.8 2l4.9 4.9c0.1-0.1 0.3-0.2 0.4-0.3 0.9-0.4 1.9-0.8 2.9-1.2 0.9-0.4 2-0.7 3-1 0.1-0.1 0.2-0.1 0.4-0.1v-5.9c0-1.2 0.2-2.4 0.7-3.4 0.4-1.1 1.1-2.1 2-2.9v-0.1q1.3-1.3 2.9-1.9c1.1-0.4 2.3-0.7 3.5-0.7h11.6c1.3 0 2.4 0.2 3.5 0.6 1.1 0.5 2.1 1.2 3 2 0.8 0.9 1.5 1.9 1.9 3q0.7 1.6 0.7 3.4v6.9c0.1 0.1 0.4 0.2 0.5 0.2q1.5 0.6 2.9 1.2c1 0.5 2 1 2.8 1.4l0.4 0.2 4.1-4.1c0.9-0.9 1.9-1.6 3-2 1.1-0.5 2.3-0.7 3.5-0.7 1.2 0 2.3 0.2 3.4 0.7l0.1 0.1c1.1 0.5 2 1.1 2.9 2l8.2 8.1q1.3 1.3 2 2.9c0.5 1.1 0.7 2.3 0.7 3.5 0 1.2-0.3 2.4-0.7 3.5-0.5 1-1.1 2-2 2.8l-4.8 4.9c0 0.1 0.1 0.3 0.2 0.5 0.4 0.9 0.8 1.8 1.2 2.8 0 0 0 0.1 0 0.1 0.4 0.9 0.7 1.9 1 3l0.1 0.4h5.9c1.3 0 2.4 0.2 3.5 0.7 1.1 0.4 2 1.1 2.9 2h0.1q1.2 1.3 1.9 2.9c0.4 1.1 0.7 2.3 0.7 3.4v1.8h-1.7c-2.5-2.3-5.3-4.1-8.3-5.4q-0.4-0.1-0.7-0.3c-4.1-1.5-7.6-2.1-10.7-2.2q-0.2-0.6-0.4-1.2c-0.2-0.8-0.5-1.7-0.9-2.6 0 0 0-0.1 0-0.1-0.3-0.9-0.7-1.6-1-2.4-0.4-0.8-0.7-1.6-1.2-2.3-0.7-1.4-0.4-3 0.6-4.1l6.7-6.7c0-0.1 0-0.1 0.1-0.1q0.3-0.3 0.4-0.6c0.2-0.2 0.2-0.4 0.2-0.8q0-0.4-0.2-0.8c-0.1-0.2-0.3-0.4-0.5-0.7l-8.2-8.1zm-69.8 75.8c-4.4 3.4-9.4 6-16.6 3.3-4.7-1.8-8.6-5.9-10.8-11.1 18.8 8.5 25.5-15.9 3.3-16.7 6.8-8.1 16.8-8.1 24.9-2.1 3.8 2.8 5.9 4.3 8.1 4.9 1.2 0.3 2.4 0.4 4 0.4 5.1 0 32.2-0.6 37.7-0.7 10.3-0.2 15.5-16 30.1-10.4 4.7 1.7 8.6 5.9 10.8 11.1-18.8-8.5-25.5 15.9-3.3 16.6-6.8 8.2-16.8 8.1-24.9 2.1-3.5-2.6-5.7-5.7-12.7-5.5-4.9 0.2-31.9 0.5-36.7 0.8-1.9 0.2-3.2 0.3-4.4 0.8-2.2 0.9-4.2 2.6-9.5 6.5zm34.8-61.1c1.7 0 3.5 0.2 5.2 0.6q2.5 0.5 5 1.5 2.3 1.1 4.4 2.4 2.1 1.4 3.9 3.2c1.2 1.2 2.2 2.5 3.2 3.9q1.4 2.1 2.4 4.4c0 0.1 0 0.3 0.1 0.3 0.5 1.3 1 2.7 1.3 4.1-1.6 1-3 2.1-4.5 3.2h-1.8q-0.1-0.6-0.2-1.2c-0.3-1.2-0.6-2.3-1-3.4-0.1-0.1-0.1-0.1-0.2-0.2q-0.7-1.9-1.8-3.4c-0.7-1-1.4-2-2.3-2.8-0.8-0.9-1.8-1.7-2.8-2.3q-1.5-1.1-3.4-1.9-1.7-0.7-3.6-1.1c-1.3-0.3-2.6-0.4-3.9-0.4-1.4 0-2.7 0.1-3.9 0.4-1.3 0.3-2.4 0.6-3.5 1 0 0.1-0.1 0.1-0.2 0.1q-1.8 0.8-3.4 1.9c-1 0.7-1.9 1.4-2.8 2.3-0.9 0.8-1.7 1.8-2.3 2.8q-1 1.5-1.8 3.4-0.7 1.7-1.1 3.6-0.2 0.6-0.3 1.2h-6.8q0.1-1.3 0.4-2.6 0.5-2.5 1.5-5 1.1-2.3 2.4-4.4c0.9-1.4 2-2.7 3.2-3.9q1.7-1.8 3.8-3.2 2.1-1.4 4.5-2.4c0.1 0 0.2 0 0.2-0.1 1.6-0.6 3.2-1.1 4.8-1.4 1.7-0.4 3.4-0.6 5.2-0.6h0.1z"/>
	</g>
</svg>